<svg xmlns="http://www.w3.org/2000/svg" viewBox="0 0 64 64" width="64" height="64"><path d="M41.5 13.5A14.5 14.5 0 1 0 21 26.7V26.7c0 .1-.1.2-.1.3a14.5 14.5 0 0 0 .1 2.7 12 12 0 0 0-11 11.9 12.2 12.2 0 0 0 .1 1.6h38.8a12 12 0 0 0 1.2-22.6c-.8-.2-1.5-.3-2.3-.3a14.5 14.5 0 0 0-6.3-13.8z" fill="#fff" fill-opacity=".9"/><path d="M47.9 41.2a8 8 0 0 1-7.9 6.8h-24a8 8 0 0 1-1.6-15.9 12.1 12.1 0 0 1 23-8.8 10.4 10.4 0 0 1 9.7 7.2 8 8 0 0 1 .8 10.7z" fill="none" stroke="#fff" stroke-linejoin="round" stroke-width="3" stroke-linecap="round"/></svg>
